<svg width="1920" height="1005" viewBox="0 0 1920 1005" fill="none" xmlns="http://www.w3.org/2000/svg">
<g filter="url(#filter0_f_1_40)">
<circle cx="568" cy="586.001" r="176" fill="#97A3AF" fill-opacity="0.49"/>
</g>
<path d="M421.231 544.486L384.423 498.798C323.568 423.264 204.758 436.964 162.692 524.366L157.682 534.776C132.194 587.732 74.7649 617.459 16.8108 607.695L-92.2446 589.322C-165.234 577.025 -234.067 627.137 -244.784 700.375L-289.769 1007.81L1194.83 1003.8L1194.83 382.56C1162.22 382.56 1131.86 399.177 1114.28 426.645L1108.01 436.44L1073.69 504.578C1036.87 577.682 943.073 599.994 877.277 551.301L820.459 509.254C766.709 469.475 691.704 476.174 645.853 524.849L620.105 552.182C565.201 610.467 471.467 606.84 421.231 544.486Z" fill="url(#paint0_linear_1_40)"/>
<path d="M2041.67 463.418L2004.62 489.457C1958.53 521.846 1896.97 521.423 1851.34 488.404L1712.88 388.223C1670.17 357.321 1613.17 354.794 1567.89 381.795L1454.41 449.475C1404.9 478.996 1341.88 472.44 1299.52 433.361L1263.18 400.725L1248.16 389.795C1232.42 378.351 1211.62 376.63 1194.22 385.331L1194.83 432.745L1194.83 1003.57L2259.39 1007.81L2249.54 568.454C2247.17 462.922 2128.03 402.72 2041.67 463.418Z" fill="url(#paint1_linear_1_40)"/>
<g filter="url(#filter1_f_1_40)">
<circle cx="233" cy="511.001" r="176" fill="#97A3AF" fill-opacity="0.42"/>
</g>
<path d="M-263 789C-263 789 -253.5 714 -248.5 693C-243.5 672 -242.245 658.893 -212.5 628C-182.755 597.107 -139.649 585.832 -105 590.5C-105 590.5 9.5 609.5 20.5 611C31.5 612.5 81.5 609.5 104.5 590.5C127.5 571.5 136 562.5 143.5 552.5C151 542.5 155.5 526.5 169.5 505.5C183.5 484.5 207.5 469 231 459C254.5 449 300 450 320 459C340 468 350.445 472.565 364 484.5C393.31 516.024 417.5 550 431.5 562.5C445.5 575 456.5 583.5 481 590C505.5 596.5 529 598 555 590C581 582 595.492 572.176 614.5 555C614.5 555 633 533 649 518C665 503 677 499 694.5 492C712 485 746.209 483.45 778 492C794.295 497.965 801.741 501.743 813 509C813 509 878 559.5 893 566C908 572.5 923 579 943.5 579C964 579 987.5 577 1008 566C1028.5 555 1041.29 546.001 1054 529C1064.07 514.999 1068.96 506.626 1076 490.5C1076 490.5 1094 456 1102 438C1110 420 1145.5 394.5 1162 390C1178.5 385.5 1216 382.5 1235 390C1254 397.5 1267 407 1281 421C1295 435 1306.5 447 1329.5 457.5C1352.5 468 1380 468 1395.5 468C1411 468 1430.51 459.61 1448.5 451.5C1448.5 451.5 1541 398 1564.5 382.5C1588 367 1621 365 1635.5 365C1650 365 1676.5 370 1696.5 382.5C1716.5 395 1833 482.5 1853 495C1873 507.5 1889 513 1914 514.5C1939 516 1955.5 514.5 1980 503C2004.5 491.5 2020.5 475.5 2042.5 461.5C2064.5 447.5 2083.5 442 2108 441C2132.5 440 2167 451 2182.5 461.5C2198 472 2207 477 2220 496.5C2233 516 2241 538 2242.5 553C2244 568 2245 594.5 2245 594.5L2254.5 1009.5" stroke="#C5D2E1" stroke-width="5"/>
<defs>
<filter id="filter0_f_1_40" x="199" y="217.001" width="738" height="738" filterUnits="userSpaceOnUse" color-interpolation-filters="sRGB">
<feFlood flood-opacity="0" result="BackgroundImageFix"/>
<feBlend mode="normal" in="SourceGraphic" in2="BackgroundImageFix" result="shape"/>
<feGaussianBlur stdDeviation="96.5" result="effect1_foregroundBlur_1_40"/>
</filter>
<filter id="filter1_f_1_40" x="-136" y="142.001" width="738" height="738" filterUnits="userSpaceOnUse" color-interpolation-filters="sRGB">
<feFlood flood-opacity="0" result="BackgroundImageFix"/>
<feBlend mode="normal" in="SourceGraphic" in2="BackgroundImageFix" result="shape"/>
<feGaussianBlur stdDeviation="96.5" result="effect1_foregroundBlur_1_40"/>
</filter>
<linearGradient id="paint0_linear_1_40" x1="1158.5" y1="413.501" x2="1167" y2="992.001" gradientUnits="userSpaceOnUse">
<stop stop-color="#0D0C1B" stop-opacity="0.01"/>
<stop offset="0.750534" stop-color="#06111C" stop-opacity="0.06"/>
</linearGradient>
<linearGradient id="paint1_linear_1_40" x1="1303.21" y1="403.188" x2="1314.29" y2="989.404" gradientUnits="userSpaceOnUse">
<stop stop-color="#0D0C1B" stop-opacity="0.01"/>
<stop offset="0.81435" stop-color="#06111C" stop-opacity="0.06"/>
</linearGradient>
</defs>
</svg>
