<svg width="539" height="96" viewBox="0 0 539 96" fill="none" xmlns="http://www.w3.org/2000/svg">
<path d="M539 96H0V61C0 54 9 44 17 43.5C25 43 38.5 43.5 38.5 43.5C40.3887 44.045 41.0769 44.6566 42 46C48.3423 79.6437 69.0923 94.0064 93.5 93.5C117.908 92.9935 134.052 78.2078 141 46C142.496 44.2619 143.583 43.5986 146 43H518C530.279 43 539 55.5002 539 60.5V96Z" fill="white"/>
<rect x="52" width="81" height="81" rx="40.5" fill="url(#paint0_linear_1_378)"/>
<path fill-rule="evenodd" clip-rule="evenodd" d="M88.7745 24.5069C89.9962 23.831 91.5038 23.831 92.7255 24.5069L104.538 31.0412C105.753 31.713 106.5 32.9507 106.5 34.2897V39.2231C106.5 40.112 105.744 40.8325 104.812 40.8325C103.881 40.8325 103.125 40.112 103.125 39.2231V35.8477L92.4375 41.7597V54.7811V55.4592C92.4375 57.113 90.5586 58.1452 89.0586 57.3154L76.962 50.624C75.7475 49.9521 75 48.7143 75 47.3755V34.2897C75 32.9507 75.7475 31.713 76.962 31.0412L88.7745 24.5069ZM91.0322 27.2913L101.449 33.0536L90.75 38.972L80.0509 33.0536L90.4678 27.2913C90.6423 27.1947 90.8577 27.1947 91.0322 27.2913ZM78.375 47.3755V35.8477L89.0625 41.7597V53.5965L78.6553 47.8394C78.4818 47.7435 78.375 47.5667 78.375 47.3755Z" fill="white"/>
<path d="M103.415 45.0529C102.863 45.0529 102.415 45.5006 102.415 46.0529L102.415 50.4149L98.053 50.4149C97.5007 50.4149 97.053 50.8626 97.053 51.4149V51.5209C97.053 52.0732 97.5007 52.5209 98.053 52.5209L102.415 52.5209L102.415 56.8829C102.415 57.4351 102.863 57.8829 103.415 57.8829L103.521 57.8829C104.073 57.8829 104.521 57.4351 104.521 56.8829L104.521 52.5209H108.883C109.435 52.5209 109.883 52.0732 109.883 51.5209V51.4149C109.883 50.8626 109.435 50.4149 108.883 50.4149H104.521L104.521 46.0529C104.521 45.5006 104.073 45.0529 103.521 45.0529L103.415 45.0529Z" fill="white"/>
<defs>
<linearGradient id="paint0_linear_1_378" x1="48.2326" y1="116.32" x2="124.523" y2="-45.6802" gradientUnits="userSpaceOnUse">
<stop offset="0.20941" stop-color="#E3902D"/>
<stop offset="0.75533" stop-color="#FFB950"/>
</linearGradient>
</defs>
</svg>
