<svg width="299" height="42" viewBox="0 0 299 42" fill="none" xmlns="http://www.w3.org/2000/svg">
<path d="M62.7 21C62.7 19.6267 63.0067 18.4 63.62 17.32C64.2467 16.2267 65.0933 15.38 66.16 14.78C67.24 14.1667 68.4467 13.86 69.78 13.86C71.34 13.86 72.7067 14.26 73.88 15.06C75.0533 15.86 75.8733 16.9667 76.34 18.38H73.12C72.8 17.7133 72.3467 17.2133 71.76 16.88C71.1867 16.5467 70.52 16.38 69.76 16.38C68.9467 16.38 68.22 16.5733 67.58 16.96C66.9533 17.3333 66.46 17.8667 66.1 18.56C65.7533 19.2533 65.58 20.0667 65.58 21C65.58 21.92 65.7533 22.7333 66.1 23.44C66.46 24.1333 66.9533 24.6733 67.58 25.06C68.22 25.4333 68.9467 25.62 69.76 25.62C70.52 25.62 71.1867 25.4533 71.76 25.12C72.3467 24.7733 72.8 24.2667 73.12 23.6H76.34C75.8733 25.0267 75.0533 26.14 73.88 26.94C72.72 27.7267 71.3533 28.12 69.78 28.12C68.4467 28.12 67.24 27.82 66.16 27.22C65.0933 26.6067 64.2467 25.76 63.62 24.68C63.0067 23.6 62.7 22.3733 62.7 21ZM80.6316 18.64C80.9916 18.0533 81.4582 17.5933 82.0316 17.26C82.6182 16.9267 83.2849 16.76 84.0316 16.76V19.7H83.2916C82.4116 19.7 81.7449 19.9067 81.2916 20.32C80.8516 20.7333 80.6316 21.4533 80.6316 22.48V28H77.8316V16.92H80.6316V18.64ZM95.6175 16.92L88.7575 33.24H85.7775L88.1775 27.72L83.7375 16.92H86.8775L89.7375 24.66L92.6375 16.92H95.6175ZM99.0269 18.52C99.3869 18.0133 99.8802 17.5933 100.507 17.26C101.147 16.9133 101.874 16.74 102.687 16.74C103.634 16.74 104.487 16.9733 105.247 17.44C106.02 17.9067 106.627 18.5733 107.067 19.44C107.52 20.2933 107.747 21.2867 107.747 22.42C107.747 23.5533 107.52 24.56 107.067 25.44C106.627 26.3067 106.02 26.98 105.247 27.46C104.487 27.94 103.634 28.18 102.687 28.18C101.874 28.18 101.154 28.0133 100.527 27.68C99.9135 27.3467 99.4135 26.9267 99.0269 26.42V33.28H96.2269V16.92H99.0269V18.52ZM104.887 22.42C104.887 21.7533 104.747 21.18 104.467 20.7C104.2 20.2067 103.84 19.8333 103.387 19.58C102.947 19.3267 102.467 19.2 101.947 19.2C101.44 19.2 100.96 19.3333 100.507 19.6C100.067 19.8533 99.7069 20.2267 99.4269 20.72C99.1602 21.2133 99.0269 21.7933 99.0269 22.46C99.0269 23.1267 99.1602 23.7067 99.4269 24.2C99.7069 24.6933 100.067 25.0733 100.507 25.34C100.96 25.5933 101.44 25.72 101.947 25.72C102.467 25.72 102.947 25.5867 103.387 25.32C103.84 25.0533 104.2 24.6733 104.467 24.18C104.747 23.6867 104.887 23.1 104.887 22.42ZM112.142 19.22V24.58C112.142 24.9533 112.228 25.2267 112.402 25.4C112.588 25.56 112.895 25.64 113.322 25.64H114.622V28H112.862C110.502 28 109.322 26.8533 109.322 24.56V19.22H108.002V16.92H109.322V14.18H112.142V16.92H114.622V19.22H112.142ZM120.655 28.18C119.589 28.18 118.629 27.9467 117.775 27.48C116.922 27 116.249 26.3267 115.755 25.46C115.275 24.5933 115.035 23.5933 115.035 22.46C115.035 21.3267 115.282 20.3267 115.775 19.46C116.282 18.5933 116.969 17.9267 117.835 17.46C118.702 16.98 119.669 16.74 120.735 16.74C121.802 16.74 122.769 16.98 123.635 17.46C124.502 17.9267 125.182 18.5933 125.675 19.46C126.182 20.3267 126.435 21.3267 126.435 22.46C126.435 23.5933 126.175 24.5933 125.655 25.46C125.149 26.3267 124.455 27 123.575 27.48C122.709 27.9467 121.735 28.18 120.655 28.18ZM120.655 25.74C121.162 25.74 121.635 25.62 122.075 25.38C122.529 25.1267 122.889 24.7533 123.155 24.26C123.422 23.7667 123.555 23.1667 123.555 22.46C123.555 21.4067 123.275 20.6 122.715 20.04C122.169 19.4667 121.495 19.18 120.695 19.18C119.895 19.18 119.222 19.4667 118.675 20.04C118.142 20.6 117.875 21.4067 117.875 22.46C117.875 23.5133 118.135 24.3267 118.655 24.9C119.189 25.46 119.855 25.74 120.655 25.74ZM136.275 28.14C135.302 28.14 134.422 27.9733 133.635 27.64C132.862 27.3067 132.248 26.8267 131.795 26.2C131.342 25.5733 131.108 24.8333 131.095 23.98H134.095C134.135 24.5533 134.335 25.0067 134.695 25.34C135.068 25.6733 135.575 25.84 136.215 25.84C136.868 25.84 137.382 25.6867 137.755 25.38C138.128 25.06 138.315 24.6467 138.315 24.14C138.315 23.7267 138.188 23.3867 137.935 23.12C137.682 22.8533 137.362 22.6467 136.975 22.5C136.602 22.34 136.082 22.1667 135.415 21.98C134.508 21.7133 133.768 21.4533 133.195 21.2C132.635 20.9333 132.148 20.54 131.735 20.02C131.335 19.4867 131.135 18.78 131.135 17.9C131.135 17.0733 131.342 16.3533 131.755 15.74C132.168 15.1267 132.748 14.66 133.495 14.34C134.242 14.0067 135.095 13.84 136.055 13.84C137.495 13.84 138.662 14.1933 139.555 14.9C140.462 15.5933 140.962 16.5667 141.055 17.82H137.975C137.948 17.34 137.742 16.9467 137.355 16.64C136.982 16.32 136.482 16.16 135.855 16.16C135.308 16.16 134.868 16.3 134.535 16.58C134.215 16.86 134.055 17.2667 134.055 17.8C134.055 18.1733 134.175 18.4867 134.415 18.74C134.668 18.98 134.975 19.18 135.335 19.34C135.708 19.4867 136.228 19.66 136.895 19.86C137.802 20.1267 138.542 20.3933 139.115 20.66C139.688 20.9267 140.182 21.3267 140.595 21.86C141.008 22.3933 141.215 23.0933 141.215 23.96C141.215 24.7067 141.022 25.4 140.635 26.04C140.248 26.68 139.682 27.1933 138.935 27.58C138.188 27.9533 137.302 28.14 136.275 28.14ZM148.983 16.76C149.823 16.76 150.569 16.9467 151.223 17.32C151.876 17.68 152.383 18.22 152.743 18.94C153.116 19.6467 153.303 20.5 153.303 21.5V28H150.503V21.88C150.503 21 150.283 20.3267 149.843 19.86C149.403 19.38 148.803 19.14 148.043 19.14C147.269 19.14 146.656 19.38 146.203 19.86C145.763 20.3267 145.543 21 145.543 21.88V28H142.743V13.2H145.543V18.3C145.903 17.82 146.383 17.4467 146.983 17.18C147.583 16.9 148.249 16.76 148.983 16.76ZM154.345 22.42C154.345 21.3 154.565 20.3067 155.005 19.44C155.458 18.5733 156.065 17.9067 156.825 17.44C157.598 16.9733 158.458 16.74 159.405 16.74C160.232 16.74 160.952 16.9067 161.565 17.24C162.192 17.5733 162.692 17.9933 163.065 18.5V16.92H165.885V28H163.065V26.38C162.705 26.9 162.205 27.3333 161.565 27.68C160.938 28.0133 160.212 28.18 159.385 28.18C158.452 28.18 157.598 27.94 156.825 27.46C156.065 26.98 155.458 26.3067 155.005 25.44C154.565 24.56 154.345 23.5533 154.345 22.42ZM163.065 22.46C163.065 21.78 162.932 21.2 162.665 20.72C162.398 20.2267 162.038 19.8533 161.585 19.6C161.132 19.3333 160.645 19.2 160.125 19.2C159.605 19.2 159.125 19.3267 158.685 19.58C158.245 19.8333 157.885 20.2067 157.605 20.7C157.338 21.18 157.205 21.7533 157.205 22.42C157.205 23.0867 157.338 23.6733 157.605 24.18C157.885 24.6733 158.245 25.0533 158.685 25.32C159.138 25.5867 159.618 25.72 160.125 25.72C160.645 25.72 161.132 25.5933 161.585 25.34C162.038 25.0733 162.398 24.7 162.665 24.22C162.932 23.7267 163.065 23.14 163.065 22.46ZM170.52 18.64C170.88 18.0533 171.347 17.5933 171.92 17.26C172.507 16.9267 173.173 16.76 173.92 16.76V19.7H173.18C172.3 19.7 171.633 19.9067 171.18 20.32C170.74 20.7333 170.52 21.4533 170.52 22.48V28H167.72V16.92H170.52V18.64ZM181.466 28L177.706 23.28V28H174.906V13.2H177.706V21.62L181.426 16.92H185.066L180.186 22.48L185.106 28H181.466ZM189.925 28.18C189.019 28.18 188.205 28.02 187.485 27.7C186.765 27.3667 186.192 26.92 185.765 26.36C185.352 25.8 185.125 25.18 185.085 24.5H187.905C187.959 24.9267 188.165 25.28 188.525 25.56C188.899 25.84 189.359 25.98 189.905 25.98C190.439 25.98 190.852 25.8733 191.145 25.66C191.452 25.4467 191.605 25.1733 191.605 24.84C191.605 24.48 191.419 24.2133 191.045 24.04C190.685 23.8533 190.105 23.6533 189.305 23.44C188.479 23.24 187.799 23.0333 187.265 22.82C186.745 22.6067 186.292 22.28 185.905 21.84C185.532 21.4 185.345 20.8067 185.345 20.06C185.345 19.4467 185.519 18.8867 185.865 18.38C186.225 17.8733 186.732 17.4733 187.385 17.18C188.052 16.8867 188.832 16.74 189.725 16.74C191.045 16.74 192.099 17.0733 192.885 17.74C193.672 18.3933 194.105 19.28 194.185 20.4H191.505C191.465 19.96 191.279 19.6133 190.945 19.36C190.625 19.0933 190.192 18.96 189.645 18.96C189.139 18.96 188.745 19.0533 188.465 19.24C188.199 19.4267 188.065 19.6867 188.065 20.02C188.065 20.3933 188.252 20.68 188.625 20.88C188.999 21.0667 189.579 21.26 190.365 21.46C191.165 21.66 191.825 21.8667 192.345 22.08C192.865 22.2933 193.312 22.6267 193.685 23.08C194.072 23.52 194.272 24.1067 194.285 24.84C194.285 25.48 194.105 26.0533 193.745 26.56C193.399 27.0667 192.892 27.4667 192.225 27.76C191.572 28.04 190.805 28.18 189.925 28.18ZM208.11 25.34H202.55L201.63 28H198.69L203.71 14.02H206.97L211.99 28H209.03L208.11 25.34ZM207.35 23.1L205.33 17.26L203.31 23.1H207.35ZM212.246 22.46C212.246 21.3133 212.479 20.3133 212.946 19.46C213.413 18.5933 214.059 17.9267 214.886 17.46C215.713 16.98 216.659 16.74 217.726 16.74C219.099 16.74 220.233 17.0867 221.126 17.78C222.033 18.46 222.639 19.42 222.946 20.66H219.926C219.766 20.18 219.493 19.8067 219.106 19.54C218.733 19.26 218.266 19.12 217.706 19.12C216.906 19.12 216.273 19.4133 215.806 20C215.339 20.5733 215.106 21.3933 215.106 22.46C215.106 23.5133 215.339 24.3333 215.806 24.92C216.273 25.4933 216.906 25.78 217.706 25.78C218.839 25.78 219.579 25.2733 219.926 24.26H222.946C222.639 25.46 222.033 26.4133 221.126 27.12C220.219 27.8267 219.086 28.18 217.726 28.18C216.659 28.18 215.713 27.9467 214.886 27.48C214.059 27 213.413 26.3333 212.946 25.48C212.479 24.6133 212.246 23.6067 212.246 22.46ZM223.377 22.42C223.377 21.3 223.597 20.3067 224.037 19.44C224.491 18.5733 225.097 17.9067 225.857 17.44C226.631 16.9733 227.491 16.74 228.437 16.74C229.264 16.74 229.984 16.9067 230.597 17.24C231.224 17.5733 231.724 17.9933 232.097 18.5V16.92H234.917V28H232.097V26.38C231.737 26.9 231.237 27.3333 230.597 27.68C229.971 28.0133 229.244 28.18 228.417 28.18C227.484 28.18 226.631 27.94 225.857 27.46C225.097 26.98 224.491 26.3067 224.037 25.44C223.597 24.56 223.377 23.5533 223.377 22.42ZM232.097 22.46C232.097 21.78 231.964 21.2 231.697 20.72C231.431 20.2267 231.071 19.8533 230.617 19.6C230.164 19.3333 229.677 19.2 229.157 19.2C228.637 19.2 228.157 19.3267 227.717 19.58C227.277 19.8333 226.917 20.2067 226.637 20.7C226.371 21.18 226.237 21.7533 226.237 22.42C226.237 23.0867 226.371 23.6733 226.637 24.18C226.917 24.6733 227.277 25.0533 227.717 25.32C228.171 25.5867 228.651 25.72 229.157 25.72C229.677 25.72 230.164 25.5933 230.617 25.34C231.071 25.0733 231.431 24.7 231.697 24.22C231.964 23.7267 232.097 23.14 232.097 22.46ZM236.032 22.42C236.032 21.3 236.252 20.3067 236.692 19.44C237.145 18.5733 237.759 17.9067 238.532 17.44C239.305 16.9733 240.165 16.74 241.112 16.74C241.832 16.74 242.519 16.9 243.172 17.22C243.825 17.5267 244.345 17.94 244.732 18.46V13.2H247.572V28H244.732V26.36C244.385 26.9067 243.899 27.3467 243.272 27.68C242.645 28.0133 241.919 28.18 241.092 28.18C240.159 28.18 239.305 27.94 238.532 27.46C237.759 26.98 237.145 26.3067 236.692 25.44C236.252 24.56 236.032 23.5533 236.032 22.42ZM244.752 22.46C244.752 21.78 244.619 21.2 244.352 20.72C244.085 20.2267 243.725 19.8533 243.272 19.6C242.819 19.3333 242.332 19.2 241.812 19.2C241.292 19.2 240.812 19.3267 240.372 19.58C239.932 19.8333 239.572 20.2067 239.292 20.7C239.025 21.18 238.892 21.7533 238.892 22.42C238.892 23.0867 239.025 23.6733 239.292 24.18C239.572 24.6733 239.932 25.0533 240.372 25.32C240.825 25.5867 241.305 25.72 241.812 25.72C242.332 25.72 242.819 25.5933 243.272 25.34C243.725 25.0733 244.085 24.7 244.352 24.22C244.619 23.7267 244.752 23.14 244.752 22.46ZM259.707 22.22C259.707 22.62 259.68 22.98 259.627 23.3H251.527C251.593 24.1 251.873 24.7267 252.367 25.18C252.86 25.6333 253.467 25.86 254.187 25.86C255.227 25.86 255.967 25.4133 256.407 24.52H259.427C259.107 25.5867 258.493 26.4667 257.587 27.16C256.68 27.84 255.567 28.18 254.247 28.18C253.18 28.18 252.22 27.9467 251.367 27.48C250.527 27 249.867 26.3267 249.387 25.46C248.92 24.5933 248.687 23.5933 248.687 22.46C248.687 21.3133 248.92 20.3067 249.387 19.44C249.853 18.5733 250.507 17.9067 251.347 17.44C252.187 16.9733 253.153 16.74 254.247 16.74C255.3 16.74 256.24 16.9667 257.067 17.42C257.907 17.8733 258.553 18.52 259.007 19.36C259.473 20.1867 259.707 21.14 259.707 22.22ZM256.807 21.42C256.793 20.7 256.533 20.1267 256.027 19.7C255.52 19.26 254.9 19.04 254.167 19.04C253.473 19.04 252.887 19.2533 252.407 19.68C251.94 20.0933 251.653 20.6733 251.547 21.42H256.807ZM274.61 16.76C275.97 16.76 277.064 17.18 277.89 18.02C278.73 18.8467 279.15 20.0067 279.15 21.5V28H276.35V21.88C276.35 21.0133 276.13 20.3533 275.69 19.9C275.25 19.4333 274.65 19.2 273.89 19.2C273.13 19.2 272.524 19.4333 272.07 19.9C271.63 20.3533 271.41 21.0133 271.41 21.88V28H268.61V21.88C268.61 21.0133 268.39 20.3533 267.95 19.9C267.51 19.4333 266.91 19.2 266.15 19.2C265.377 19.2 264.764 19.4333 264.31 19.9C263.87 20.3533 263.65 21.0133 263.65 21.88V28H260.85V16.92H263.65V18.26C264.01 17.7933 264.47 17.4267 265.03 17.16C265.604 16.8933 266.23 16.76 266.91 16.76C267.777 16.76 268.55 16.9467 269.23 17.32C269.91 17.68 270.437 18.2 270.81 18.88C271.17 18.24 271.69 17.7267 272.37 17.34C273.064 16.9533 273.81 16.76 274.61 16.76ZM291.507 16.92L284.647 33.24H281.667L284.067 27.72L279.627 16.92H282.767L285.627 24.66L288.527 16.92H291.507Z" fill="white"/>
<rect width="42" height="42" rx="21" fill="url(#paint0_linear_1_550)"/>
<path d="M20.8672 27.5095C19.8353 27.4009 17.9938 26.7007 16.4096 26.0386C15.1522 25.5132 14.1085 25.744 15.3411 26.3253C18.9154 28.2066 19.36 29.7308 18.9894 30.6805C18.8088 31.1435 17.946 31.5088 18.0342 31.9979C18.0977 32.3499 18.4513 32.2601 18.7898 32.1446C20.2196 31.6566 22.0081 29.5374 22.8014 28.4174C29.7485 26.9174 29.9459 21.036 28.8801 19.1019L28.0512 20.4439L24.5382 16.9704L25.9197 16.102C22.5093 13.7652 18.3936 13.1284 16.7621 13.1021C12.3727 13.1021 11.0649 14.1547 10.9596 14.681C10.6122 15.4072 12.6306 16.6151 13.6832 17.1282C15.1042 15.9283 17.2489 15.6283 18.1436 15.6283C19.0906 15.6283 18.1701 16.29 17.2297 16.402C15.1639 16.648 14.3542 17.4903 14.3542 17.523C14.3542 17.5546 15.7489 18.273 16.4463 18.6282C18.4646 19.5582 20.4036 20.6172 21.9101 21.7355C24.3441 23.5422 24.8008 27.8167 21.7774 27.5991C21.4552 27.576 21.1444 27.5387 20.8672 27.5095Z" fill="white"/>
<path d="M15.8945 14.0894C15.8629 13.8999 16.2235 13.8525 16.4077 13.8525C16.5787 13.8657 16.9287 13.9394 16.9603 14.1288C16.9998 14.3657 16.684 14.563 16.3682 14.563C16.0524 14.563 15.934 14.3262 15.8945 14.0894Z" fill="#01AEF3"/>
<path d="M17.1958 22.6544C17.7642 21.9597 17.7221 20.6019 17.63 20.0098C17.7563 20.0413 19.4326 21.0229 20.2352 21.5097C19.6984 22.1413 17.9853 22.536 17.1958 22.6544Z" fill="white"/>
<path d="M31.4856 15.3127C29.7488 15.1232 26.8936 16.4179 25.6831 17.0889C26.1252 17.31 27.341 18.6284 27.8936 19.2599C28.3988 17.9968 30.4988 16.1021 31.4856 15.3127Z" fill="white"/>
<path d="M24.893 14.6417C24.5456 13.6628 24.9588 12.2997 25.2088 11.7603C23.4088 11.9181 22.0905 12.8786 21.6562 13.3392C22.6036 13.497 24.0772 14.2339 24.893 14.6417L24.893 14.6417Z" fill="white"/>
<defs>
<linearGradient id="paint0_linear_1_550" x1="-1.95349" y1="60.314" x2="37.6046" y2="-23.686" gradientUnits="userSpaceOnUse">
<stop offset="0.262506" stop-color="#0377FB"/>
<stop offset="0.549253" stop-color="#01B0F3"/>
<stop offset="1" stop-color="#01CBBF"/>
</linearGradient>
</defs>
</svg>
