<svg width="299" height="42" viewBox="0 0 299 42" fill="none" xmlns="http://www.w3.org/2000/svg">
<path d="M62.66 20.96C62.66 19.5733 62.96 18.34 63.56 17.26C64.16 16.1667 64.9933 15.32 66.06 14.72C67.14 14.1067 68.36 13.8 69.72 13.8C71.3867 13.8 72.8133 14.24 74 15.12C75.1867 16 75.98 17.2 76.38 18.72H72.62C72.34 18.1333 71.94 17.6867 71.42 17.38C70.9133 17.0733 70.3333 16.92 69.68 16.92C68.6267 16.92 67.7733 17.2867 67.12 18.02C66.4667 18.7533 66.14 19.7333 66.14 20.96C66.14 22.1867 66.4667 23.1667 67.12 23.9C67.7733 24.6333 68.6267 25 69.68 25C70.3333 25 70.9133 24.8467 71.42 24.54C71.94 24.2333 72.34 23.7867 72.62 23.2H76.38C75.98 24.72 75.1867 25.92 74 26.8C72.8133 27.6667 71.3867 28.1 69.72 28.1C68.36 28.1 67.14 27.8 66.06 27.2C64.9933 26.5867 64.16 25.74 63.56 24.66C62.96 23.58 62.66 22.3467 62.66 20.96ZM80.9944 18.7C81.3944 18.0867 81.8944 17.6067 82.4944 17.26C83.0944 16.9 83.761 16.72 84.4944 16.72V20.34H83.5544C82.701 20.34 82.061 20.5267 81.6344 20.9C81.2077 21.26 80.9944 21.9 80.9944 22.82V28H77.5744V16.84H80.9944V18.7ZM96.6291 16.84L89.6291 33.3H85.9491L88.5091 27.62L83.9691 16.84H87.7891L90.3691 23.82L92.9291 16.84H96.6291ZM100.386 18.42C100.719 17.9 101.179 17.48 101.766 17.16C102.352 16.84 103.039 16.68 103.826 16.68C104.746 16.68 105.579 16.9133 106.326 17.38C107.072 17.8467 107.659 18.5133 108.086 19.38C108.526 20.2467 108.746 21.2533 108.746 22.4C108.746 23.5467 108.526 24.56 108.086 25.44C107.659 26.3067 107.072 26.98 106.326 27.46C105.579 27.9267 104.746 28.16 103.826 28.16C103.052 28.16 102.366 28 101.766 27.68C101.179 27.36 100.719 26.9467 100.386 26.44V33.32H96.9658V16.84H100.386V18.42ZM105.266 22.4C105.266 21.5467 105.026 20.88 104.546 20.4C104.079 19.9067 103.499 19.66 102.806 19.66C102.126 19.66 101.546 19.9067 101.066 20.4C100.599 20.8933 100.366 21.5667 100.366 22.42C100.366 23.2733 100.599 23.9467 101.066 24.44C101.546 24.9333 102.126 25.18 102.806 25.18C103.486 25.18 104.066 24.9333 104.546 24.44C105.026 23.9333 105.266 23.2533 105.266 22.4ZM115.86 25.1V28H114.12C112.88 28 111.913 27.7 111.22 27.1C110.527 26.4867 110.18 25.4933 110.18 24.12V19.68H108.82V16.84H110.18V14.12H113.6V16.84H115.84V19.68H113.6V24.16C113.6 24.4933 113.68 24.7333 113.84 24.88C114 25.0267 114.267 25.1 114.64 25.1H115.86ZM121.945 28.16C120.852 28.16 119.865 27.9267 118.985 27.46C118.118 26.9933 117.432 26.3267 116.925 25.46C116.432 24.5933 116.185 23.58 116.185 22.42C116.185 21.2733 116.438 20.2667 116.945 19.4C117.452 18.52 118.145 17.8467 119.025 17.38C119.905 16.9133 120.892 16.68 121.985 16.68C123.078 16.68 124.065 16.9133 124.945 17.38C125.825 17.8467 126.518 18.52 127.025 19.4C127.532 20.2667 127.785 21.2733 127.785 22.42C127.785 23.5667 127.525 24.58 127.005 25.46C126.498 26.3267 125.798 26.9933 124.905 27.46C124.025 27.9267 123.038 28.16 121.945 28.16ZM121.945 25.2C122.598 25.2 123.152 24.96 123.605 24.48C124.072 24 124.305 23.3133 124.305 22.42C124.305 21.5267 124.078 20.84 123.625 20.36C123.185 19.88 122.638 19.64 121.985 19.64C121.318 19.64 120.765 19.88 120.325 20.36C119.885 20.8267 119.665 21.5133 119.665 22.42C119.665 23.3133 119.878 24 120.305 24.48C120.745 24.96 121.292 25.2 121.945 25.2ZM137.118 28.14C136.091 28.14 135.171 27.9733 134.358 27.64C133.544 27.3067 132.891 26.8133 132.398 26.16C131.918 25.5067 131.664 24.72 131.638 23.8H135.278C135.331 24.32 135.511 24.72 135.818 25C136.124 25.2667 136.524 25.4 137.018 25.4C137.524 25.4 137.924 25.2867 138.218 25.06C138.511 24.82 138.658 24.4933 138.658 24.08C138.658 23.7333 138.538 23.4467 138.298 23.22C138.071 22.9933 137.784 22.8067 137.438 22.66C137.104 22.5133 136.624 22.3467 135.998 22.16C135.091 21.88 134.351 21.6 133.778 21.32C133.204 21.04 132.711 20.6267 132.298 20.08C131.884 19.5333 131.678 18.82 131.678 17.94C131.678 16.6333 132.151 15.6133 133.098 14.88C134.044 14.1333 135.278 13.76 136.798 13.76C138.344 13.76 139.591 14.1333 140.538 14.88C141.484 15.6133 141.991 16.64 142.058 17.96H138.358C138.331 17.5067 138.164 17.1533 137.858 16.9C137.551 16.6333 137.158 16.5 136.678 16.5C136.264 16.5 135.931 16.6133 135.678 16.84C135.424 17.0533 135.298 17.3667 135.298 17.78C135.298 18.2333 135.511 18.5867 135.938 18.84C136.364 19.0933 137.031 19.3667 137.938 19.66C138.844 19.9667 139.578 20.26 140.138 20.54C140.711 20.82 141.204 21.2267 141.618 21.76C142.031 22.2933 142.238 22.98 142.238 23.82C142.238 24.62 142.031 25.3467 141.618 26C141.218 26.6533 140.631 27.1733 139.858 27.56C139.084 27.9467 138.171 28.14 137.118 28.14ZM150.302 16.72C151.582 16.72 152.609 17.1467 153.382 18C154.156 18.84 154.542 20 154.542 21.48V28H151.142V21.94C151.142 21.1933 150.949 20.6133 150.562 20.2C150.176 19.7867 149.656 19.58 149.002 19.58C148.349 19.58 147.829 19.7867 147.442 20.2C147.056 20.6133 146.862 21.1933 146.862 21.94V28H143.442V13.2H146.862V18.34C147.209 17.8467 147.682 17.4533 148.282 17.16C148.882 16.8667 149.556 16.72 150.302 16.72ZM155.339 22.4C155.339 21.2533 155.552 20.2467 155.979 19.38C156.419 18.5133 157.012 17.8467 157.759 17.38C158.506 16.9133 159.339 16.68 160.259 16.68C161.046 16.68 161.732 16.84 162.319 17.16C162.919 17.48 163.379 17.9 163.699 18.42V16.84H167.119V28H163.699V26.42C163.366 26.94 162.899 27.36 162.299 27.68C161.712 28 161.026 28.16 160.239 28.16C159.332 28.16 158.506 27.9267 157.759 27.46C157.012 26.98 156.419 26.3067 155.979 25.44C155.552 24.56 155.339 23.5467 155.339 22.4ZM163.699 22.42C163.699 21.5667 163.459 20.8933 162.979 20.4C162.512 19.9067 161.939 19.66 161.259 19.66C160.579 19.66 159.999 19.9067 159.519 20.4C159.052 20.88 158.819 21.5467 158.819 22.4C158.819 23.2533 159.052 23.9333 159.519 24.44C159.999 24.9333 160.579 25.18 161.259 25.18C161.939 25.18 162.512 24.9333 162.979 24.44C163.459 23.9467 163.699 23.2733 163.699 22.42ZM172.113 18.7C172.513 18.0867 173.013 17.6067 173.613 17.26C174.213 16.9 174.88 16.72 175.613 16.72V20.34H174.673C173.82 20.34 173.18 20.5267 172.753 20.9C172.326 21.26 172.113 21.9 172.113 22.82V28H168.693V16.84H172.113V18.7ZM183.168 28L179.768 23.32V28H176.348V13.2H179.768V21.38L183.148 16.84H187.368L182.728 22.44L187.408 28H183.168ZM192.351 28.16C191.378 28.16 190.511 27.9933 189.751 27.66C188.991 27.3267 188.391 26.8733 187.951 26.3C187.511 25.7133 187.264 25.06 187.211 24.34H190.591C190.631 24.7267 190.811 25.04 191.131 25.28C191.451 25.52 191.844 25.64 192.311 25.64C192.738 25.64 193.064 25.56 193.291 25.4C193.531 25.2267 193.651 25.0067 193.651 24.74C193.651 24.42 193.484 24.1867 193.151 24.04C192.818 23.88 192.278 23.7067 191.531 23.52C190.731 23.3333 190.064 23.14 189.531 22.94C188.998 22.7267 188.538 22.4 188.151 21.96C187.764 21.5067 187.571 20.9 187.571 20.14C187.571 19.5 187.744 18.92 188.091 18.4C188.451 17.8667 188.971 17.4467 189.651 17.14C190.344 16.8333 191.164 16.68 192.111 16.68C193.511 16.68 194.611 17.0267 195.411 17.72C196.224 18.4133 196.691 19.3333 196.811 20.48H193.651C193.598 20.0933 193.424 19.7867 193.131 19.56C192.851 19.3333 192.478 19.22 192.011 19.22C191.611 19.22 191.304 19.3 191.091 19.46C190.878 19.6067 190.771 19.8133 190.771 20.08C190.771 20.4 190.938 20.64 191.271 20.8C191.618 20.96 192.151 21.12 192.871 21.28C193.698 21.4933 194.371 21.7067 194.891 21.92C195.411 22.12 195.864 22.4533 196.251 22.92C196.651 23.3733 196.858 23.9867 196.871 24.76C196.871 25.4133 196.684 26 196.311 26.52C195.951 27.0267 195.424 27.4267 194.731 27.72C194.051 28.0133 193.258 28.16 192.351 28.16ZM210.142 25.52H204.902L204.062 28H200.482L205.562 13.96H209.522L214.602 28H210.982L210.142 25.52ZM209.262 22.88L207.522 17.74L205.802 22.88H209.262ZM214.568 22.42C214.568 21.26 214.801 20.2467 215.268 19.38C215.748 18.5133 216.408 17.8467 217.248 17.38C218.101 16.9133 219.074 16.68 220.168 16.68C221.568 16.68 222.734 17.0467 223.668 17.78C224.614 18.5133 225.234 19.5467 225.528 20.88H221.888C221.581 20.0267 220.988 19.6 220.108 19.6C219.481 19.6 218.981 19.8467 218.608 20.34C218.234 20.82 218.048 21.5133 218.048 22.42C218.048 23.3267 218.234 24.0267 218.608 24.52C218.981 25 219.481 25.24 220.108 25.24C220.988 25.24 221.581 24.8133 221.888 23.96H225.528C225.234 25.2667 224.614 26.2933 223.668 27.04C222.721 27.7867 221.554 28.16 220.168 28.16C219.074 28.16 218.101 27.9267 217.248 27.46C216.408 26.9933 215.748 26.3267 215.268 25.46C214.801 24.5933 214.568 23.58 214.568 22.42ZM225.777 22.4C225.777 21.2533 225.991 20.2467 226.417 19.38C226.857 18.5133 227.451 17.8467 228.197 17.38C228.944 16.9133 229.777 16.68 230.697 16.68C231.484 16.68 232.171 16.84 232.757 17.16C233.357 17.48 233.817 17.9 234.137 18.42V16.84H237.557V28H234.137V26.42C233.804 26.94 233.337 27.36 232.737 27.68C232.151 28 231.464 28.16 230.677 28.16C229.771 28.16 228.944 27.9267 228.197 27.46C227.451 26.98 226.857 26.3067 226.417 25.44C225.991 24.56 225.777 23.5467 225.777 22.4ZM234.137 22.42C234.137 21.5667 233.897 20.8933 233.417 20.4C232.951 19.9067 232.377 19.66 231.697 19.66C231.017 19.66 230.437 19.9067 229.957 20.4C229.491 20.88 229.257 21.5467 229.257 22.4C229.257 23.2533 229.491 23.9333 229.957 24.44C230.437 24.9333 231.017 25.18 231.697 25.18C232.377 25.18 232.951 24.9333 233.417 24.44C233.897 23.9467 234.137 23.2733 234.137 22.42ZM238.451 22.4C238.451 21.2533 238.665 20.2467 239.091 19.38C239.531 18.5133 240.125 17.8467 240.871 17.38C241.618 16.9133 242.451 16.68 243.371 16.68C244.105 16.68 244.771 16.8333 245.371 17.14C245.985 17.4467 246.465 17.86 246.811 18.38V13.2H250.231V28H246.811V26.4C246.491 26.9333 246.031 27.36 245.431 27.68C244.845 28 244.158 28.16 243.371 28.16C242.451 28.16 241.618 27.9267 240.871 27.46C240.125 26.98 239.531 26.3067 239.091 25.44C238.665 24.56 238.451 23.5467 238.451 22.4ZM246.811 22.42C246.811 21.5667 246.571 20.8933 246.091 20.4C245.625 19.9067 245.051 19.66 244.371 19.66C243.691 19.66 243.111 19.9067 242.631 20.4C242.165 20.88 241.931 21.5467 241.931 22.4C241.931 23.2533 242.165 23.9333 242.631 24.44C243.111 24.9333 243.691 25.18 244.371 25.18C245.051 25.18 245.625 24.9333 246.091 24.44C246.571 23.9467 246.811 23.2733 246.811 22.42ZM262.326 22.24C262.326 22.56 262.306 22.8933 262.266 23.24H254.526C254.579 23.9333 254.799 24.4667 255.186 24.84C255.586 25.2 256.072 25.38 256.646 25.38C257.499 25.38 258.092 25.02 258.426 24.3H262.066C261.879 25.0333 261.539 25.6933 261.046 26.28C260.566 26.8667 259.959 27.3267 259.226 27.66C258.492 27.9933 257.672 28.16 256.766 28.16C255.672 28.16 254.699 27.9267 253.846 27.46C252.992 26.9933 252.326 26.3267 251.846 25.46C251.366 24.5933 251.126 23.58 251.126 22.42C251.126 21.26 251.359 20.2467 251.826 19.38C252.306 18.5133 252.972 17.8467 253.826 17.38C254.679 16.9133 255.659 16.68 256.766 16.68C257.846 16.68 258.806 16.9067 259.646 17.36C260.486 17.8133 261.139 18.46 261.606 19.3C262.086 20.14 262.326 21.12 262.326 22.24ZM258.826 21.34C258.826 20.7533 258.626 20.2867 258.226 19.94C257.826 19.5933 257.326 19.42 256.726 19.42C256.152 19.42 255.666 19.5867 255.266 19.92C254.879 20.2533 254.639 20.7267 254.546 21.34H258.826ZM277.47 16.72C278.857 16.72 279.957 17.14 280.77 17.98C281.597 18.82 282.01 19.9867 282.01 21.48V28H278.61V21.94C278.61 21.22 278.417 20.6667 278.03 20.28C277.657 19.88 277.137 19.68 276.47 19.68C275.803 19.68 275.277 19.88 274.89 20.28C274.517 20.6667 274.33 21.22 274.33 21.94V28H270.93V21.94C270.93 21.22 270.737 20.6667 270.35 20.28C269.977 19.88 269.457 19.68 268.79 19.68C268.123 19.68 267.597 19.88 267.21 20.28C266.837 20.6667 266.65 21.22 266.65 21.94V28H263.23V16.84H266.65V18.24C266.997 17.7733 267.45 17.4067 268.01 17.14C268.57 16.86 269.203 16.72 269.91 16.72C270.75 16.72 271.497 16.9 272.15 17.26C272.817 17.62 273.337 18.1333 273.71 18.8C274.097 18.1867 274.623 17.6867 275.29 17.3C275.957 16.9133 276.683 16.72 277.47 16.72ZM294.902 16.84L287.902 33.3H284.222L286.782 27.62L282.242 16.84H286.062L288.642 23.82L291.202 16.84H294.902Z" fill="#161621"/>
<rect width="42" height="42" rx="21" fill="url(#paint0_linear_1_265)"/>
<path d="M20.8672 27.5094C19.8353 27.4008 17.9938 26.7006 16.4096 26.0385C15.1522 25.5131 14.1085 25.7438 15.3411 26.3252C18.9154 28.2065 19.36 29.7307 18.9894 30.6804C18.8088 31.1434 17.946 31.5086 18.0342 31.9977C18.0977 32.3498 18.4513 32.26 18.7898 32.1444C20.2196 31.6565 22.0081 29.5372 22.8014 28.4173C29.7485 26.9173 29.9459 21.0359 28.8801 19.1018L28.0512 20.4438L24.5382 16.9702L25.9197 16.1018C22.5093 13.7651 18.3936 13.1282 16.7621 13.1019C12.3727 13.1019 11.0649 14.1545 10.9596 14.6808C10.6122 15.4071 12.6306 16.615 13.6832 17.1281C15.1042 15.9282 17.2489 15.6282 18.1436 15.6282C19.0906 15.6282 18.1701 16.2899 17.2297 16.4019C15.1639 16.6479 14.3542 17.4902 14.3542 17.5229C14.3542 17.5544 15.7489 18.2728 16.4463 18.6281C18.4646 19.5581 20.4036 20.6171 21.9101 21.7354C24.3441 23.5421 24.8008 27.8166 21.7774 27.599C21.4552 27.5758 21.1444 27.5386 20.8672 27.5094Z" fill="white"/>
<path d="M15.8945 14.089C15.8629 13.8995 16.2235 13.8522 16.4077 13.8522C16.5787 13.8653 16.9287 13.939 16.9603 14.1285C16.9998 14.3653 16.684 14.5627 16.3682 14.5627C16.0524 14.5627 15.934 14.3258 15.8945 14.089Z" fill="#01AEF3"/>
<path d="M17.1958 22.6544C17.7642 21.9597 17.7221 20.6019 17.63 20.0098C17.7563 20.0413 19.4326 21.0229 20.2352 21.5097C19.6984 22.1413 17.9853 22.536 17.1958 22.6544Z" fill="white"/>
<path d="M31.4856 15.3127C29.7488 15.1232 26.8936 16.4179 25.6831 17.0889C26.1252 17.31 27.341 18.6284 27.8936 19.2599C28.3988 17.9968 30.4988 16.1021 31.4856 15.3127Z" fill="white"/>
<path d="M24.893 14.6415C24.5456 13.6626 24.9588 12.2995 25.2088 11.76C23.4088 11.9179 22.0905 12.8784 21.6562 13.3389C22.6036 13.4968 24.0772 14.2336 24.893 14.6415L24.893 14.6415Z" fill="white"/>
<defs>
<linearGradient id="paint0_linear_1_265" x1="-1.95349" y1="60.314" x2="37.6046" y2="-23.686" gradientUnits="userSpaceOnUse">
<stop offset="0.262506" stop-color="#0377FB"/>
<stop offset="0.549253" stop-color="#01B0F3"/>
<stop offset="1" stop-color="#01CBBF"/>
</linearGradient>
</defs>
</svg>
