<svg width="17" height="12" viewBox="0 0 17 12" fill="none" xmlns="http://www.w3.org/2000/svg">
<path fill-rule="evenodd" clip-rule="evenodd" d="M5.8712 1.6363C5.29887 1.6363 4.74997 1.86609 4.34527 2.27512C3.94057 2.68417 3.7132 3.23893 3.7132 3.8174C3.7132 4.39587 3.94057 4.95064 4.34527 5.35967C4.74997 5.76871 5.29887 5.99851 5.8712 5.99851C6.44354 5.99851 6.99244 5.76871 7.39715 5.35967C7.80185 4.95064 8.0292 4.39587 8.0292 3.8174C8.0292 3.23893 7.80185 2.68417 7.39715 2.27512C6.99244 1.86609 6.44354 1.6363 5.8712 1.6363ZM2.0947 3.8174C2.09463 3.18474 2.25014 2.56198 2.54727 2.00514C2.84439 1.4483 3.2738 0.974835 3.79688 0.627331C4.31996 0.279826 4.9203 0.0691858 5.5439 0.0143638C6.16751 -0.0404692 6.79482 0.0622283 7.36941 0.313208C7.944 0.564199 8.44786 0.955598 8.83565 1.45222C9.22345 1.94884 9.48304 2.5351 9.59106 3.15826C9.69908 3.78144 9.65214 4.42197 9.45447 5.02226C9.2568 5.62254 8.9146 6.16376 8.45865 6.59722C9.31846 7.01881 10.065 7.64379 10.6349 8.41913C11.2048 9.19448 11.5813 10.0974 11.7323 11.051C11.766 11.2653 11.714 11.4844 11.5878 11.66C11.4616 11.8356 11.2716 11.9533 11.0596 11.9873C10.8476 12.0213 10.6308 11.9687 10.4571 11.8411C10.2834 11.7137 10.1669 11.5216 10.1333 11.3073C9.96998 10.2837 9.45138 9.35229 8.6704 8.67998C7.88941 8.00769 6.89706 7.63847 5.8712 7.63847C4.84534 7.63847 3.85301 8.00769 3.07202 8.67998C2.29103 9.35229 1.77243 10.2837 1.60915 11.3073C1.59244 11.4134 1.55519 11.5152 1.49957 11.6068C1.44393 11.6984 1.37101 11.778 1.28494 11.841C1.19887 11.9042 1.10135 11.9494 0.997954 11.9744C0.894551 11.9995 0.787289 12.0036 0.682291 11.9867C0.577295 11.9698 0.476618 11.9322 0.386013 11.8759C0.295407 11.8198 0.216645 11.746 0.154224 11.659C0.0918027 11.5721 0.0469443 11.4735 0.0222115 11.3689C-0.00252171 11.2645 -0.00664598 11.1561 0.0100742 11.0499C0.161495 10.0966 0.53811 9.19427 1.10799 8.41928C1.67787 7.64434 2.42422 7.0197 3.28376 6.59831C2.90776 6.24175 2.60821 5.81093 2.40368 5.33259C2.19915 4.85423 2.09398 4.33851 2.0947 3.8174ZM11.8057 2.18158C11.5911 2.18158 11.3852 2.26774 11.2335 2.42114C11.0817 2.57452 10.9965 2.78256 10.9965 2.99949C10.9965 3.21641 11.0817 3.42445 11.2335 3.57784C11.3852 3.73123 11.5911 3.8174 11.8057 3.8174C12.1707 3.81743 12.5251 3.9422 12.8112 4.17145C13.0973 4.40071 13.2983 4.72097 13.3815 5.08024C13.4647 5.43951 13.4253 5.81668 13.2697 6.15047C13.1141 6.48426 12.8515 6.75508 12.5243 6.91894C12.3895 6.98675 12.2759 7.09128 12.1966 7.22075C12.1173 7.35023 12.0754 7.4995 12.0755 7.65179V8.03566C12.0753 8.21938 12.1362 8.39782 12.2485 8.54225C12.3609 8.68667 12.5181 8.78869 12.6948 8.83177C13.9896 9.14694 15.0276 10.1404 15.4161 11.4186C15.4468 11.5216 15.4975 11.6176 15.5651 11.7009C15.6327 11.7841 15.7159 11.8531 15.81 11.9039C15.904 11.9545 16.007 11.9859 16.1131 11.9962C16.2192 12.0066 16.3262 11.9956 16.4282 11.9641C16.53 11.9324 16.6247 11.8808 16.7068 11.8121C16.7889 11.7434 16.8567 11.659 16.9065 11.5637C16.9562 11.4685 16.9869 11.3642 16.9966 11.2569C17.0064 11.1497 16.9951 11.0416 16.9633 10.9387C16.7473 10.2305 16.391 9.5741 15.9162 9.00953C15.4413 8.4448 14.8578 7.98362 14.2011 7.65397C14.6229 7.18497 14.9009 6.60221 15.0012 5.97654C15.1015 5.35086 15.0198 4.70922 14.7662 4.12958C14.5124 3.54994 14.0975 3.05727 13.572 2.71144C13.0465 2.36562 12.4328 2.18153 11.8057 2.18158Z" fill="#169DFF"/>
</svg>
