<svg width="17" height="17" viewBox="0 0 17 17" fill="none" xmlns="http://www.w3.org/2000/svg">
<path fill-rule="evenodd" clip-rule="evenodd" d="M6.50461 0.253428C7.08153 -0.0844761 7.79347 -0.084476 8.37039 0.253428L13.9485 3.52059C14.522 3.85649 14.875 4.47534 14.875 5.14485V7.61155C14.875 8.05598 14.5182 8.41627 14.0781 8.41627C13.638 8.41627 13.2812 8.05598 13.2812 7.61155V5.92383L8.23438 8.87983V15.3905V15.7296C8.23438 16.5565 7.34713 17.0726 6.6388 16.6577L0.926494 13.312C0.353002 12.9761 0 12.3572 0 11.6877V5.14485C0 4.47534 0.353001 3.85649 0.926493 3.52059L6.50461 0.253428ZM7.57077 1.64565L12.4899 4.5268L7.43751 7.48602L2.38515 4.5268L7.30423 1.64565C7.38665 1.59737 7.48835 1.59737 7.57077 1.64565ZM1.59375 11.6877V5.92383L6.64062 8.87983V14.7983L1.72611 11.9197C1.64418 11.8718 1.59375 11.7833 1.59375 11.6877ZM13.995 11.3851C14.2984 11.0631 14.2857 10.5538 13.9669 10.2474C13.648 9.9411 13.1437 9.95379 12.8403 10.2758L10.3133 12.9582C10.0206 13.2689 10.0206 13.7568 10.3133 14.0675L12.8403 16.7499C13.1437 17.072 13.648 17.0846 13.9669 16.7783C14.2857 16.472 14.2984 15.9626 13.995 15.6406L12.7486 14.3176H16.2031C16.6432 14.3176 17 13.9573 17 13.5129C17 13.0684 16.6432 12.7081 16.2031 12.7081H12.7486L13.995 11.3851Z" fill="white"/>
</svg>
