<svg width="17" height="12" viewBox="0 0 17 12" fill="none" xmlns="http://www.w3.org/2000/svg">
<path d="M12.5462 12C12.5462 12 12.0223 11.3857 11.5856 10.8428C13.4923 10.3143 14.22 9.14286 14.22 9.14286C13.6233 9.5286 13.0556 9.80004 12.5462 9.98574C11.8185 10.2857 11.1199 10.4857 10.4358 10.6C9.03854 10.8572 7.75771 10.7857 6.66612 10.5857C5.83647 10.4286 5.12329 10.2 4.52654 9.97146C4.19178 9.84288 3.82791 9.68574 3.46404 9.48576C3.42038 9.45714 3.37671 9.44286 3.33305 9.4143C3.30394 9.40002 3.28938 9.38574 3.27483 9.37146C3.01284 9.2286 2.86729 9.12858 2.86729 9.12858C2.86729 9.12858 3.56593 10.2715 5.41438 10.8143C4.97774 11.3572 4.43921 12 4.43921 12C1.2226 11.9 0 9.8286 0 9.8286C0 5.22864 2.09589 1.5001 2.09589 1.5001C4.19178 -0.042738 6.18581 0.000118717 6.18581 0.000118717L6.33135 0.171545C3.71147 0.914394 2.50343 2.04296 2.50343 2.04296C2.50343 2.04296 2.82363 1.87153 3.36216 1.62868C4.91952 0.957252 6.15667 0.77154 6.66612 0.728682C6.75343 0.714396 6.82623 0.70011 6.91354 0.70011C7.80136 0.585827 8.80564 0.557256 9.85363 0.671538C11.2363 0.828684 12.7209 1.22868 14.2346 2.04296C14.2346 2.04296 13.0848 0.971538 10.6104 0.228688L10.8142 0.000118717C10.8142 0.000118717 12.8082 -0.042738 14.9041 1.5001C14.9041 1.5001 17 5.22864 17 9.8286C17 9.8286 15.7628 11.9 12.5462 12ZM5.77825 5.32864C4.94863 5.32864 4.29367 6.0429 4.29367 6.91434C4.29367 7.78578 4.96319 8.50002 5.77825 8.50002C6.6079 8.50002 7.26283 7.78578 7.26283 6.91434C7.2774 6.0429 6.6079 5.32864 5.77825 5.32864ZM11.0907 5.32864C10.2611 5.32864 9.60615 6.0429 9.60615 6.91434C9.60615 7.78578 10.2757 8.50002 11.0907 8.50002C11.9204 8.50002 12.5753 7.78578 12.5753 6.91434C12.5753 6.0429 11.9204 5.32864 11.0907 5.32864Z" fill="white"/>
</svg>
