<svg width="15" height="15" viewBox="0 0 15 15" fill="none" xmlns="http://www.w3.org/2000/svg">
<path fill-rule="evenodd" clip-rule="evenodd" d="M1.40625 13.3593C1.40625 13.4888 1.51118 13.5937 1.64062 13.5937H3.75V12.4218C3.75 12.0335 4.0648 11.7187 4.45312 11.7187H6.79688C7.1852 11.7187 7.5 12.0335 7.5 12.4218V13.5937H9.60938C9.73884 13.5937 9.84375 13.4888 9.84375 13.3593V1.64061C9.84375 1.51118 9.73884 1.40624 9.60938 1.40624H1.64062C1.51118 1.40624 1.40625 1.51118 1.40625 1.64061V13.3593ZM1.64062 14.9999C0.734533 14.9999 0 14.2654 0 13.3593V1.64061C0 0.734528 0.734533 0 1.64062 0H9.60938C10.5155 0 11.25 0.734528 11.25 1.64061V13.3593C11.25 13.4389 11.2444 13.5172 11.2334 13.5938H13.3594C13.4888 13.5938 13.5938 13.4889 13.5938 13.3594V7.76738C13.5938 7.68903 13.5546 7.61585 13.4894 7.57237L12.5006 6.9132C12.1775 6.69779 12.0902 6.26124 12.3056 5.93814C12.521 5.61504 12.9576 5.52773 13.2806 5.74313L14.2694 6.40232C14.7259 6.70659 15 7.21885 15 7.76738V13.3594C15 14.2655 14.2655 15 13.3594 15H10.0781C10.0142 15 9.95222 14.9915 9.89325 14.9754C9.80109 14.9916 9.70622 14.9999 9.60938 14.9999H6.79688C6.40855 14.9999 6.09375 14.6851 6.09375 14.2968V13.1249H5.15625V14.2968C5.15625 14.6851 4.84145 14.9999 4.45312 14.9999H1.64062ZM2.8125 3.5156C2.8125 3.12728 3.1273 2.81248 3.51562 2.81248H3.98438C4.3727 2.81248 4.6875 3.12728 4.6875 3.5156C4.6875 3.90392 4.3727 4.21872 3.98438 4.21872H3.51562C3.1273 4.21872 2.8125 3.90392 2.8125 3.5156ZM3.51562 5.62497C3.1273 5.62497 2.8125 5.93977 2.8125 6.32809C2.8125 6.71641 3.1273 7.03121 3.51562 7.03121H3.98438C4.3727 7.03121 4.6875 6.71641 4.6875 6.32809C4.6875 5.93977 4.3727 5.62497 3.98438 5.62497H3.51562ZM2.8125 9.14057C2.8125 8.75225 3.1273 8.43745 3.51562 8.43745H3.98438C4.3727 8.43745 4.6875 8.75225 4.6875 9.14057C4.6875 9.52888 4.3727 9.84369 3.98438 9.84369H3.51562C3.1273 9.84369 2.8125 9.52888 2.8125 9.14057ZM7.26562 8.43745C6.8773 8.43745 6.5625 8.75225 6.5625 9.14057C6.5625 9.52888 6.8773 9.84369 7.26562 9.84369H7.73438C8.1227 9.84369 8.4375 9.52888 8.4375 9.14057C8.4375 8.75225 8.1227 8.43745 7.73438 8.43745H7.26562ZM6.5625 6.32809C6.5625 5.93977 6.8773 5.62497 7.26562 5.62497H7.73438C8.1227 5.62497 8.4375 5.93977 8.4375 6.32809C8.4375 6.71641 8.1227 7.03121 7.73438 7.03121H7.26562C6.8773 7.03121 6.5625 6.71641 6.5625 6.32809ZM7.26562 2.81248C6.8773 2.81248 6.5625 3.12728 6.5625 3.5156C6.5625 3.90392 6.8773 4.21872 7.26562 4.21872H7.73438C8.1227 4.21872 8.4375 3.90392 8.4375 3.5156C8.4375 3.12728 8.1227 2.81248 7.73438 2.81248H7.26562Z" fill="#1CBD34"/>
</svg>
