<svg width="11" height="16" viewBox="0 0 11 16" fill="none" xmlns="http://www.w3.org/2000/svg">
<path fill-rule="evenodd" clip-rule="evenodd" d="M5.5 1.5C3.137 1.5 1.5 3.19 1.5 5.25C1.5 6.234 1.924 6.875 2.484 7.554L2.698 7.807C2.921 8.071 3.168 8.363 3.371 8.655C3.655 9.066 3.908 9.551 3.992 10.145C4.01202 10.338 3.95649 10.5312 3.83707 10.6841C3.71766 10.837 3.54365 10.9376 3.35158 10.9649C3.15951 10.9922 2.96434 10.9441 2.80704 10.8305C2.64974 10.717 2.54256 10.5469 2.508 10.356C2.468 10.074 2.345 9.809 2.138 9.509C1.96879 9.27344 1.7879 9.04649 1.596 8.829C1.512 8.729 1.423 8.624 1.328 8.509C0.701 7.75 0 6.766 0 5.25C0 2.31 2.363 0 5.5 0C8.637 0 11 2.31 11 5.25C11 6.766 10.299 7.75 9.672 8.509C9.577 8.624 9.488 8.729 9.404 8.828C9.197 9.073 9.021 9.281 8.863 9.509C8.655 9.809 8.533 10.074 8.493 10.356C8.47908 10.4535 8.44609 10.5473 8.39592 10.6321C8.34574 10.7168 8.27936 10.7909 8.20057 10.85C8.12178 10.9091 8.03212 10.9521 7.93671 10.9765C7.8413 11.001 7.74201 11.0064 7.6445 10.9925C7.54699 10.9786 7.45318 10.9456 7.36843 10.8954C7.28367 10.8452 7.20962 10.7789 7.15052 10.7001C7.09142 10.6213 7.04841 10.5316 7.02396 10.4362C6.9995 10.3408 6.99408 10.2415 7.008 10.144C7.092 9.551 7.345 9.066 7.629 8.655C7.832 8.363 8.079 8.071 8.302 7.807C8.377 7.719 8.449 7.634 8.515 7.554C9.076 6.875 9.5 6.234 9.5 5.25C9.5 3.19 7.863 1.5 5.5 1.5ZM3.5 15.25C3.5 15.0511 3.57902 14.8603 3.71967 14.7197C3.86032 14.579 4.05109 14.5 4.25 14.5H6.75C6.94891 14.5 7.13968 14.579 7.28033 14.7197C7.42098 14.8603 7.5 15.0511 7.5 15.25C7.5 15.4489 7.42098 15.6397 7.28033 15.7803C7.13968 15.921 6.94891 16 6.75 16H4.25C4.05109 16 3.86032 15.921 3.71967 15.7803C3.57902 15.6397 3.5 15.4489 3.5 15.25ZM3.25 12C3.05109 12 2.86032 12.079 2.71967 12.2197C2.57902 12.3603 2.5 12.5511 2.5 12.75C2.5 12.9489 2.57902 13.1397 2.71967 13.2803C2.86032 13.421 3.05109 13.5 3.25 13.5H7.75C7.94891 13.5 8.13968 13.421 8.28033 13.2803C8.42098 13.1397 8.5 12.9489 8.5 12.75C8.5 12.5511 8.42098 12.3603 8.28033 12.2197C8.13968 12.079 7.94891 12 7.75 12H3.25Z" fill="#F243A3"/>
</svg>
