<svg width="14" height="15" viewBox="0 0 14 15" fill="none" xmlns="http://www.w3.org/2000/svg">
<path fill-rule="evenodd" clip-rule="evenodd" d="M7 1.36364C5.8402 1.36364 4.9 2.27942 4.9 3.40909C4.9 4.53876 5.8402 5.45455 7 5.45455C8.1598 5.45455 9.1 4.53876 9.1 3.40909C9.1 2.27942 8.1598 1.36364 7 1.36364ZM3.5 3.40909C3.5 1.5263 5.067 0 7 0C8.933 0 10.5 1.5263 10.5 3.40909C10.5 5.29188 8.933 6.81818 7 6.81818C5.067 6.81818 3.5 5.29188 3.5 3.40909ZM0 14.3182C0 10.5526 3.13402 7.5 7 7.5C10.866 7.5 14 10.5526 14 14.3182C14 14.6947 13.6866 15 13.3 15C12.9134 15 12.6 14.6947 12.6 14.3182C12.6 11.3057 10.0928 8.86364 7 8.86364C3.90721 8.86364 1.4 11.3057 1.4 14.3182C1.4 14.6947 1.0866 15 0.7 15C0.313401 15 0 14.6947 0 14.3182ZM5.10503 11.1088C5.37839 10.8425 5.82161 10.8425 6.09497 11.1088L7 11.9903L7.90503 11.1088C8.17839 10.8425 8.62161 10.8425 8.89497 11.1088C9.16834 11.3751 9.16834 11.8068 8.89497 12.073L7.98995 12.9545L8.89497 13.8361C9.16834 14.1023 9.16834 14.534 8.89497 14.8003C8.62161 15.0666 8.17839 15.0666 7.90503 14.8003L7 13.9188L6.09497 14.8003C5.82161 15.0666 5.37839 15.0666 5.10503 14.8003C4.83166 14.534 4.83166 14.1023 5.10503 13.8361L6.01005 12.9545L5.10503 12.073C4.83166 11.8068 4.83166 11.3751 5.10503 11.1088Z" fill="white"/>
</svg>
