<svg width="13" height="13" viewBox="0 0 13 13" fill="none" xmlns="http://www.w3.org/2000/svg">
<path fill-rule="evenodd" clip-rule="evenodd" d="M1.21875 0.696429C1.21875 0.311805 0.945921 0 0.609375 0C0.272826 0 0 0.311805 0 0.696429V12.3036C0 12.6882 0.272826 13 0.609375 13H12.3906C12.7272 13 13 12.6882 13 12.3036C13 11.919 12.7272 11.6071 12.3906 11.6071H1.21875V0.696429ZM12.8215 3.04602C13.0595 2.77405 13.0595 2.33309 12.8215 2.06112C12.5835 1.78915 12.1977 1.78915 11.9598 2.06112L8.125 6.44367L6.11839 4.15041C5.88042 3.87844 5.49458 3.87844 5.25661 4.15041L2.61598 7.16827C2.37801 7.44023 2.37801 7.88119 2.61598 8.15316C2.85396 8.42511 3.2398 8.42511 3.47777 8.15316L5.6875 5.62776L7.69411 7.92102C7.80839 8.05162 7.96339 8.125 8.125 8.125C8.28661 8.125 8.44163 8.05162 8.55587 7.92102L12.8215 3.04602Z" fill="#FF7C44"/>
</svg>
