<svg width="12" height="16" viewBox="0 0 12 16" fill="none" xmlns="http://www.w3.org/2000/svg">
<path fill-rule="evenodd" clip-rule="evenodd" d="M1.47051e-06 2.53968C1.47051e-06 1.86612 0.263391 1.22013 0.732231 0.743855C1.20108 0.267572 1.83696 0 2.5 0H11.25C11.4489 0 11.6397 0.0802717 11.7803 0.223157C11.921 0.366041 12 0.559835 12 0.761904V13.4603C12 13.6624 11.921 13.8562 11.7803 13.999C11.6397 14.1419 11.4489 14.2222 11.25 14.2222H8.75C8.5511 14.2222 8.3603 14.1419 8.2197 13.999C8.079 13.8562 8 13.6624 8 13.4603C8 13.2582 8.079 13.0644 8.2197 12.9216C8.3603 12.7786 8.5511 12.6984 8.75 12.6984H10.5V10.6667H2.5C2.30308 10.6667 2.11056 10.7258 1.94657 10.8365C1.78257 10.9472 1.65442 11.1047 1.57816 11.2892C1.50191 11.4736 1.48096 11.6767 1.51793 11.8733C1.5549 12.0698 1.64816 12.2508 1.786 12.3936C1.92524 12.5381 2.0023 12.7327 2.00024 12.9349C1.99818 13.137 1.91716 13.3301 1.775 13.4715C1.63285 13.6129 1.4412 13.6912 1.24222 13.6891C1.04325 13.687 0.853241 13.6048 0.714001 13.4603C0.255711 12.9858 -0.000708529 12.3473 1.47051e-06 11.6825V2.53968ZM10.5 1.52381V9.14285H2.5C2.144 9.14285 1.806 9.21802 1.5 9.35415V2.53968C1.5 2.27025 1.60536 2.01186 1.79289 1.82135C1.98043 1.63084 2.23478 1.52381 2.5 1.52381H10.5ZM3 12.4444V15.746C3 15.7931 3.01293 15.8394 3.03734 15.8795C3.06175 15.9196 3.09667 15.952 3.1382 15.9732C3.17972 15.9943 3.22621 16.0032 3.27245 15.999C3.31869 15.9947 3.36286 15.9775 3.4 15.9492L4.85 14.8449C4.89328 14.8119 4.94591 14.7941 5 14.7941C5.05409 14.7941 5.10673 14.8119 5.15 14.8449L6.6 15.9492C6.63714 15.9775 6.68131 15.9947 6.72755 15.999C6.77379 16.0032 6.82028 15.9943 6.8618 15.9732C6.90333 15.952 6.93826 15.9196 6.96266 15.8795C6.98707 15.8394 7 15.7931 7 15.746V12.4444C7 12.3771 6.97366 12.3125 6.92678 12.2648C6.87989 12.2172 6.81631 12.1905 6.75 12.1905H3.25C3.1837 12.1905 3.12011 12.2172 3.07322 12.2648C3.02634 12.3125 3 12.3771 3 12.4444Z" fill="#F243A3"/>
</svg>
