<svg width="13" height="16" viewBox="0 0 13 16" fill="none" xmlns="http://www.w3.org/2000/svg">
<path fill-rule="evenodd" clip-rule="evenodd" d="M8.85221 1.49822C8.84852 1.49836 8.84498 1.49977 8.84221 1.50222L1.57721 8.56922C1.54152 8.60401 1.51705 8.64868 1.50694 8.69748C1.49682 8.74629 1.50152 8.797 1.52044 8.84311C1.53936 8.88922 1.57163 8.92863 1.6131 8.95627C1.65458 8.9839 1.70337 8.99851 1.75321 8.99822H5.04121C5.16426 8.99824 5.28541 9.02854 5.39399 9.08645C5.50256 9.14435 5.59522 9.22808 5.6638 9.33025C5.73237 9.43242 5.77476 9.54989 5.78721 9.67231C5.79966 9.79473 5.78181 9.91833 5.73521 10.0322L4.02221 14.2202L11.0042 7.42722C11.0398 7.39248 11.0643 7.34791 11.0744 7.2992C11.0846 7.25049 11.08 7.19986 11.0612 7.15379C11.0424 7.10772 11.0103 7.06831 10.9689 7.04059C10.9276 7.01288 10.879 6.99812 10.8292 6.99822H7.54121C7.41575 6.99823 7.29228 6.96677 7.18213 6.90671C7.07197 6.84665 6.97864 6.75992 6.91069 6.65445C6.84273 6.54898 6.80232 6.42815 6.79315 6.30302C6.78398 6.17789 6.80635 6.05246 6.85821 5.93822L8.86621 1.52022L8.86921 1.51422C8.86865 1.51093 8.86727 1.50784 8.86521 1.50522C8.86366 1.50281 8.86162 1.50077 8.85921 1.49922L8.85121 1.49822H8.85221ZM7.79521 0.428219C8.04851 0.182334 8.37969 0.0325568 8.7316 0.00472186C9.08352 -0.0231131 9.43412 0.0727394 9.72293 0.275746C10.0117 0.478753 10.2206 0.776186 10.3136 1.11674C10.4066 1.4573 10.3778 1.81962 10.2322 2.14122L8.70621 5.49822H10.8292C12.3992 5.49822 13.1752 7.40722 12.0492 8.50222L4.70921 15.6442C4.47601 15.8711 4.16355 15.9981 3.83821 15.9982H3.53621C3.33114 15.9982 3.12922 15.9477 2.94826 15.8513C2.7673 15.7548 2.61284 15.6153 2.49852 15.4451C2.3842 15.2748 2.31352 15.0791 2.29271 14.875C2.27191 14.671 2.30161 14.465 2.37921 14.2752L3.92421 10.4982H1.75321C0.183211 10.4982 -0.592789 8.58922 0.533211 7.49422L7.79421 0.427219L7.79521 0.428219Z" fill="#5D43FF"/>
</svg>
