<svg width="16" height="10" viewBox="0 0 16 10" fill="none" xmlns="http://www.w3.org/2000/svg">
<path fill-rule="evenodd" clip-rule="evenodd" d="M15.6235 0.693949C15.7421 0.30249 15.6235 0.0177933 15.0982 0.0177933H13.3528C12.9123 0.0177933 12.7089 0.266904 12.5903 0.533808C12.5903 0.533808 11.6922 2.81139 10.4383 4.28825C10.0316 4.7153 9.84517 4.85765 9.62488 4.85765C9.50627 4.85765 9.35376 4.7153 9.35376 4.32384V0.676156C9.35376 0.213522 9.2182 0 8.8454 0H6.10028C5.82915 0 5.6597 0.213522 5.6597 0.427045C5.6597 0.871885 6.28667 0.978648 6.35446 2.2242V4.92883C6.35446 5.51601 6.25279 5.62277 6.0325 5.62277C5.43942 5.62277 3.99907 3.3274 3.13487 0.711744C2.96541 0.19573 2.79596 0 2.35539 0H0.593083C0.0847261 0 0 0.249109 0 0.516013C0 0.99644 0.593083 3.41637 2.76207 6.61922C4.20241 8.80783 6.25279 9.98221 8.09981 9.98221C9.2182 9.98221 9.35376 9.7153 9.35376 9.27046V7.61566C9.35376 7.08185 9.45543 6.99288 9.81128 6.99288C10.0655 6.99288 10.523 7.13523 11.5566 8.18505C12.7428 9.43061 12.9461 10 13.607 10H15.3524C15.8607 10 16.098 9.7331 15.9624 9.21708C15.8099 8.70107 15.2337 7.95374 14.4882 7.06406C14.0815 6.56584 13.4714 6.01424 13.2851 5.74733C13.0309 5.39146 13.0987 5.24911 13.2851 4.92883C13.2681 4.92883 15.4032 1.76156 15.6235 0.693949Z" fill="white"/>
</svg>
